# xmcd CD database file
#
# Track frame offsets:
#	150
#	2935
#	16102
#	45239
#	73952
#	79415
#	96619
#	100993
#	123599
#	150390
#	168338
#	173220
#	192500
#	212679
#	214739
#	235718
#	260699
#
# Disc length: 3542 seconds
#
# Revision: 0
# Processed by: cddbd v1.5.2PL0 Copyright (c) Steve Scherf et al.
# Submitted via: CDex 1.70beta2
#
DISCID=ec0dd411
DTITLE=2G - PierreJean Gaucher, Christophe Godin
DYEAR=2007
DGENRE=Jazz
TTITLE0=Introduction
TTITLE1=Lumpy Gravy
TTITLE2=Au pays de Gandhi
TTITLE3=Eleonor Rigby
TTITLE4=Conversation
TTITLE5=La Grenouille et le Boeuf
TTITLE6=Engueulade
TTITLE7=Roxanne
TTITLE8=Zoot Allures
TTITLE9=The Toymaker
TTITLE10=Contine
TTITLE11=Derrière les Sourieres
TTITLE12=Petit coup de Blues
TTITLE13=Set list
TTITLE14=Sleep dirt
TTITLE15=Let the WatertTurn Black
TTITLE16=Final
EXTD=YEAR: 2007
EXTT0=
EXTT1=
EXTT2=
EXTT3=
EXTT4=
EXTT5=
EXTT6=
EXTT7=
EXTT8=
EXTT9=
EXTT10=
EXTT11=
EXTT12=
EXTT13=
EXTT14=
EXTT15=
EXTT16=
PLAYORDER=
